%TF.GenerationSoftware,KiCad,Pcbnew,(7.0.0)*%
%TF.CreationDate,2023-09-10T10:39:49-04:00*%
%TF.ProjectId,RMK-complete,524d4b2d-636f-46d7-906c-6574652e6b69,rev?*%
%TF.SameCoordinates,Original*%
%TF.FileFunction,Soldermask,Bot*%
%TF.FilePolarity,Negative*%
%FSLAX46Y46*%
G04 Gerber Fmt 4.6, Leading zero omitted, Abs format (unit mm)*
G04 Created by KiCad (PCBNEW (7.0.0)) date 2023-09-10 10:39:49*
%MOMM*%
%LPD*%
G01*
G04 APERTURE LIST*
%ADD10C,1.651000*%
%ADD11R,1.651000X1.651000*%
%ADD12R,2.000000X3.200000*%
%ADD13R,2.000000X2.000000*%
%ADD14C,2.000000*%
%ADD15C,1.700000*%
%ADD16C,4.000000*%
%ADD17C,2.200000*%
%ADD18C,1.397000*%
%ADD19C,3.050000*%
%ADD20C,5.500000*%
%ADD21C,1.200000*%
%ADD22R,1.200000X2.100000*%
%ADD23C,1.500000*%
%ADD24R,1.700000X1.700000*%
%ADD25O,1.700000X1.700000*%
%ADD26R,1.752600X1.752600*%
%ADD27C,1.752600*%
G04 APERTURE END LIST*
D10*
%TO.C,D28*%
X160883600Y-92837000D03*
D11*
X168503599Y-92836999D03*
%TD*%
D12*
%TO.C,ROT1*%
X50913599Y-113156999D03*
X39713599Y-113156999D03*
D13*
X47813599Y-105656999D03*
D14*
X42813600Y-105657000D03*
X45313600Y-105657000D03*
X42813600Y-120157000D03*
X47813600Y-120157000D03*
%TD*%
D10*
%TO.C,D17*%
X270767381Y-86988838D03*
D11*
X278387380Y-86988837D03*
%TD*%
D15*
%TO.C,SW19*%
X140309600Y-172212000D03*
D16*
X145389600Y-172212000D03*
D15*
X150469600Y-172212000D03*
D17*
X147929600Y-167132000D03*
X141579600Y-169672000D03*
%TD*%
D18*
%TO.C,R1*%
X338077381Y-81146838D03*
X332997381Y-81146838D03*
%TD*%
D10*
%TO.C,D7*%
X245367381Y-86988838D03*
D11*
X252987380Y-86988837D03*
%TD*%
D10*
%TO.C,D27*%
X296167381Y-86988838D03*
D11*
X303787380Y-86988837D03*
%TD*%
D15*
%TO.C,SW27*%
X164185600Y-134112000D03*
D16*
X169265600Y-134112000D03*
D15*
X174345600Y-134112000D03*
D17*
X171805600Y-129032000D03*
X165455600Y-131572000D03*
%TD*%
D15*
%TO.C,SW32*%
X316741381Y-134486838D03*
D16*
X321821381Y-134486838D03*
D15*
X326901381Y-134486838D03*
D17*
X324361381Y-129406838D03*
X318011381Y-131946838D03*
%TD*%
D10*
%TO.C,D6*%
X105003600Y-82677000D03*
D11*
X112623599Y-82676999D03*
%TD*%
D15*
%TO.C,SW23*%
X283467381Y-153536838D03*
D16*
X288547381Y-153536838D03*
D15*
X293627381Y-153536838D03*
D17*
X291087381Y-148456838D03*
X284737381Y-150996838D03*
%TD*%
D10*
%TO.C,D31*%
X165963600Y-102997000D03*
D11*
X173583599Y-102996999D03*
%TD*%
D10*
%TO.C,D19*%
X275847381Y-97148838D03*
D11*
X283467380Y-97148837D03*
%TD*%
D10*
%TO.C,D12*%
X120243600Y-87757000D03*
D11*
X127863599Y-87756999D03*
%TD*%
D15*
%TO.C,SW4*%
X216919381Y-172586838D03*
D16*
X221999381Y-172586838D03*
D15*
X227079381Y-172586838D03*
D17*
X224539381Y-167506838D03*
X218189381Y-170046838D03*
%TD*%
D12*
%TO.C,ROT1*%
X375935380Y-138550837D03*
X364735380Y-138550837D03*
D13*
X372835380Y-131050837D03*
D14*
X367835381Y-131050838D03*
X370335381Y-131050838D03*
X367835381Y-145550838D03*
X372835381Y-145550838D03*
%TD*%
D10*
%TO.C,D12*%
X258067381Y-86988838D03*
D11*
X265687380Y-86988837D03*
%TD*%
D15*
%TO.C,SW11*%
X97383600Y-115062000D03*
D16*
X102463600Y-115062000D03*
D15*
X107543600Y-115062000D03*
D17*
X105003600Y-109982000D03*
X98653600Y-112522000D03*
%TD*%
D10*
%TO.C,D7*%
X107543600Y-87757000D03*
D11*
X115163599Y-87756999D03*
%TD*%
D10*
%TO.C,D18*%
X135483600Y-92837000D03*
D11*
X143103599Y-92836999D03*
%TD*%
D15*
%TO.C,SW29*%
X178409600Y-172212000D03*
D16*
X183489600Y-172212000D03*
D15*
X188569600Y-172212000D03*
D17*
X186029600Y-167132000D03*
X179679600Y-169672000D03*
%TD*%
D15*
%TO.C,SW7*%
X221491381Y-134486838D03*
D16*
X226571381Y-134486838D03*
D15*
X231651381Y-134486838D03*
D17*
X229111381Y-129406838D03*
X222761381Y-131946838D03*
%TD*%
D18*
%TO.C,R1*%
X70078600Y-97282000D03*
X70078600Y-92202000D03*
%TD*%
D19*
%TO.C,SW20*%
X159651600Y-184323000D03*
D16*
X159651600Y-199563000D03*
D15*
X166471600Y-191323000D03*
D16*
X171551600Y-191323000D03*
D15*
X176631600Y-191323000D03*
D19*
X183451600Y-184323000D03*
D16*
X183451600Y-199563000D03*
D17*
X174091600Y-186243000D03*
X167741600Y-188783000D03*
%TD*%
D14*
%TO.C,SW_A1*%
X342193381Y-81146838D03*
X348693381Y-81146838D03*
%TD*%
D15*
%TO.C,SW25*%
X331219381Y-191636838D03*
D16*
X336299381Y-191636838D03*
D15*
X341379381Y-191636838D03*
D17*
X338839381Y-186556838D03*
X332489381Y-189096838D03*
%TD*%
D10*
%TO.C,D34*%
X311407381Y-92068838D03*
D11*
X319027380Y-92068837D03*
%TD*%
D10*
%TO.C,D8*%
X247907381Y-92068838D03*
D11*
X255527380Y-92068837D03*
%TD*%
D10*
%TO.C,D22*%
X283467381Y-86988838D03*
D11*
X291087380Y-86988837D03*
%TD*%
D10*
%TO.C,D26*%
X155803600Y-82677000D03*
D11*
X163423599Y-82676999D03*
%TD*%
D15*
%TO.C,SW34*%
X338331381Y-172586838D03*
D16*
X343411381Y-172586838D03*
D15*
X348491381Y-172586838D03*
D17*
X345951381Y-167506838D03*
X339601381Y-170046838D03*
%TD*%
D15*
%TO.C,SW12*%
X107035600Y-134112000D03*
D16*
X112115600Y-134112000D03*
D15*
X117195600Y-134112000D03*
D17*
X114655600Y-129032000D03*
X108305600Y-131572000D03*
%TD*%
D14*
%TO.C,SW_A1*%
X53493600Y-81407000D03*
X59993600Y-81407000D03*
%TD*%
D20*
%TO.C,*%
X81661000Y-125476000D03*
%TD*%
D10*
%TO.C,D11*%
X255527381Y-81908838D03*
D11*
X263147380Y-81908837D03*
%TD*%
D15*
%TO.C,SW24*%
X159359600Y-172212000D03*
D16*
X164439600Y-172212000D03*
D15*
X169519600Y-172212000D03*
D17*
X166979600Y-167132000D03*
X160629600Y-169672000D03*
%TD*%
D10*
%TO.C,D26*%
X293627381Y-81908838D03*
D11*
X301247380Y-81908837D03*
%TD*%
D10*
%TO.C,D9*%
X250447381Y-97148838D03*
D11*
X258067380Y-97148837D03*
%TD*%
D10*
%TO.C,D5*%
X102463600Y-102997000D03*
D11*
X110083599Y-102996999D03*
%TD*%
D19*
%TO.C,SW4*%
X64401600Y-165146000D03*
D16*
X64401600Y-180386000D03*
D15*
X71221600Y-172146000D03*
D16*
X76301600Y-172146000D03*
D15*
X81381600Y-172146000D03*
D19*
X88201600Y-165146000D03*
D16*
X88201600Y-180386000D03*
D17*
X78841600Y-167066000D03*
X72491600Y-169606000D03*
%TD*%
D15*
%TO.C,SW6*%
X230889381Y-115436838D03*
D16*
X235969381Y-115436838D03*
D15*
X241049381Y-115436838D03*
D17*
X238509381Y-110356838D03*
X232159381Y-112896838D03*
%TD*%
D15*
%TO.C,SW2*%
X64109600Y-134112000D03*
D16*
X69189600Y-134112000D03*
D15*
X74269600Y-134112000D03*
D17*
X71729600Y-129032000D03*
X65379600Y-131572000D03*
%TD*%
D15*
%TO.C,SW27*%
X297691381Y-134486838D03*
D16*
X302771381Y-134486838D03*
D15*
X307851381Y-134486838D03*
D17*
X305311381Y-129406838D03*
X298961381Y-131946838D03*
%TD*%
D15*
%TO.C,SW9*%
X102209600Y-172212000D03*
D16*
X107289600Y-172212000D03*
D15*
X112369600Y-172212000D03*
D17*
X109829600Y-167132000D03*
X103479600Y-169672000D03*
%TD*%
D21*
%TO.C,U2*%
X201015600Y-81914500D03*
X201015600Y-88914500D03*
D22*
X203115599Y-90714499D03*
X203115599Y-86714499D03*
X203115599Y-83714499D03*
X198915599Y-92214499D03*
%TD*%
D10*
%TO.C,D10*%
X252987381Y-102228838D03*
D11*
X260607380Y-102228837D03*
%TD*%
D10*
%TO.C,D31*%
X303787381Y-102228838D03*
D11*
X311407380Y-102228837D03*
%TD*%
D19*
%TO.C,SW33*%
X326685381Y-146470838D03*
D16*
X326685381Y-161710838D03*
D15*
X333505381Y-153470838D03*
D16*
X338585381Y-153470838D03*
D15*
X343665381Y-153470838D03*
D19*
X350485381Y-146470838D03*
D16*
X350485381Y-161710838D03*
D17*
X341125381Y-148390838D03*
X334775381Y-150930838D03*
%TD*%
D10*
%TO.C,D19*%
X138023600Y-97917000D03*
D11*
X145643599Y-97916999D03*
%TD*%
D10*
%TO.C,D2*%
X94843600Y-87757000D03*
D11*
X102463599Y-87756999D03*
%TD*%
D15*
%TO.C,SW21*%
X135483600Y-115062000D03*
D16*
X140563600Y-115062000D03*
D15*
X145643600Y-115062000D03*
D17*
X143103600Y-109982000D03*
X136753600Y-112522000D03*
%TD*%
D19*
%TO.C,SW31*%
X328971381Y-108370838D03*
D16*
X328971381Y-123610838D03*
D15*
X335791381Y-115370838D03*
D16*
X340871381Y-115370838D03*
D15*
X345951381Y-115370838D03*
D19*
X352771381Y-108370838D03*
D16*
X352771381Y-123610838D03*
D17*
X343411381Y-110290838D03*
X337061381Y-112830838D03*
%TD*%
D15*
%TO.C,SW28*%
X302517381Y-153536838D03*
D16*
X307597381Y-153536838D03*
D15*
X312677381Y-153536838D03*
D17*
X310137381Y-148456838D03*
X303787381Y-150996838D03*
%TD*%
D15*
%TO.C,SW35*%
X340617381Y-134486838D03*
D16*
X345697381Y-134486838D03*
D15*
X350777381Y-134486838D03*
D17*
X348237381Y-129406838D03*
X341887381Y-131946838D03*
%TD*%
D15*
%TO.C,SW1*%
X211839381Y-115436838D03*
D16*
X216919381Y-115436838D03*
D15*
X221999381Y-115436838D03*
D17*
X219459381Y-110356838D03*
X213109381Y-112896838D03*
%TD*%
D15*
%TO.C,SW24*%
X293119381Y-172586838D03*
D16*
X298199381Y-172586838D03*
D15*
X303279381Y-172586838D03*
D17*
X300739381Y-167506838D03*
X294389381Y-170046838D03*
%TD*%
D10*
%TO.C,D8*%
X110083600Y-92837000D03*
D11*
X117703599Y-92836999D03*
%TD*%
D18*
%TO.C,R2*%
X330711381Y-81146838D03*
X325631381Y-81146838D03*
%TD*%
D15*
%TO.C,SW11*%
X249939381Y-115436838D03*
D16*
X255019381Y-115436838D03*
D15*
X260099381Y-115436838D03*
D17*
X257559381Y-110356838D03*
X251209381Y-112896838D03*
%TD*%
D15*
%TO.C,SW13*%
X111734600Y-153162000D03*
D16*
X116814600Y-153162000D03*
D15*
X121894600Y-153162000D03*
D17*
X119354600Y-148082000D03*
X113004600Y-150622000D03*
%TD*%
D10*
%TO.C,D20*%
X140563600Y-102997000D03*
D11*
X148183599Y-102996999D03*
%TD*%
D12*
%TO.C,ROT2*%
X375935380Y-117976837D03*
X364735380Y-117976837D03*
D13*
X372835380Y-110476837D03*
D14*
X367835381Y-110476838D03*
X370335381Y-110476838D03*
X367835381Y-124976838D03*
X372835381Y-124976838D03*
%TD*%
D15*
%TO.C,SW14*%
X255019381Y-172586838D03*
D16*
X260099381Y-172586838D03*
D15*
X265179381Y-172586838D03*
D17*
X262639381Y-167506838D03*
X256289381Y-170046838D03*
%TD*%
D15*
%TO.C,SW7*%
X87985600Y-134112000D03*
D16*
X93065600Y-134112000D03*
D15*
X98145600Y-134112000D03*
D17*
X95605600Y-129032000D03*
X89255600Y-131572000D03*
%TD*%
D15*
%TO.C,SW31*%
X173583600Y-115062000D03*
D16*
X178663600Y-115062000D03*
D15*
X183743600Y-115062000D03*
D17*
X181203600Y-109982000D03*
X174853600Y-112522000D03*
%TD*%
D15*
%TO.C,SW19*%
X274069381Y-172586838D03*
D16*
X279149381Y-172586838D03*
D15*
X284229381Y-172586838D03*
D17*
X281689381Y-167506838D03*
X275339381Y-170046838D03*
%TD*%
D15*
%TO.C,SW28*%
X168884600Y-153162000D03*
D16*
X173964600Y-153162000D03*
D15*
X179044600Y-153162000D03*
D17*
X176504600Y-148082000D03*
X170154600Y-150622000D03*
%TD*%
D10*
%TO.C,D14*%
X125323600Y-97917000D03*
D11*
X132943599Y-97916999D03*
%TD*%
D10*
%TO.C,D16*%
X130403600Y-82677000D03*
D11*
X138023599Y-82676999D03*
%TD*%
D15*
%TO.C,SW15*%
X293119381Y-191636838D03*
D16*
X298199381Y-191636838D03*
D15*
X303279381Y-191636838D03*
D17*
X300739381Y-186556838D03*
X294389381Y-189096838D03*
%TD*%
D18*
%TO.C,R2*%
X66903600Y-97282000D03*
X66903600Y-92202000D03*
%TD*%
D23*
%TO.C,RV1*%
X48463600Y-191622000D03*
X39963600Y-190422000D03*
X39963600Y-157622000D03*
X48463600Y-156422000D03*
X42463600Y-195722000D03*
X45963600Y-195722000D03*
X42463600Y-152222000D03*
%TD*%
D15*
%TO.C,SW16*%
X268989381Y-115436838D03*
D16*
X274069381Y-115436838D03*
D15*
X279149381Y-115436838D03*
D17*
X276609381Y-110356838D03*
X270259381Y-112896838D03*
%TD*%
D20*
%TO.C,*%
X121691400Y-143002000D03*
%TD*%
%TO.C,*%
X224815400Y-124409200D03*
%TD*%
D15*
%TO.C,SW2*%
X202441381Y-134486838D03*
D16*
X207521381Y-134486838D03*
D15*
X212601381Y-134486838D03*
D17*
X210061381Y-129406838D03*
X203711381Y-131946838D03*
%TD*%
D15*
%TO.C,SW17*%
X126085600Y-134112000D03*
D16*
X131165600Y-134112000D03*
D15*
X136245600Y-134112000D03*
D17*
X133705600Y-129032000D03*
X127355600Y-131572000D03*
%TD*%
D15*
%TO.C,SW22*%
X278641381Y-134486838D03*
D16*
X283721381Y-134486838D03*
D15*
X288801381Y-134486838D03*
D17*
X286261381Y-129406838D03*
X279911381Y-131946838D03*
%TD*%
D15*
%TO.C,SW14*%
X121259600Y-172212000D03*
D16*
X126339600Y-172212000D03*
D15*
X131419600Y-172212000D03*
D17*
X128879600Y-167132000D03*
X122529600Y-169672000D03*
%TD*%
D10*
%TO.C,D1*%
X230127381Y-81908838D03*
D11*
X237747380Y-81908837D03*
%TD*%
D15*
%TO.C,SW21*%
X288039381Y-115436838D03*
D16*
X293119381Y-115436838D03*
D15*
X298199381Y-115436838D03*
D17*
X295659381Y-110356838D03*
X289309381Y-112896838D03*
%TD*%
D15*
%TO.C,SW8*%
X226317381Y-153536838D03*
D16*
X231397381Y-153536838D03*
D15*
X236477381Y-153536838D03*
D17*
X233937381Y-148456838D03*
X227587381Y-150996838D03*
%TD*%
D10*
%TO.C,D27*%
X158343600Y-87757000D03*
D11*
X165963599Y-87756999D03*
%TD*%
D10*
%TO.C,D32*%
X306327381Y-81908838D03*
D11*
X313947380Y-81908837D03*
%TD*%
D10*
%TO.C,D4*%
X99923600Y-97917000D03*
D11*
X107543599Y-97916999D03*
%TD*%
D15*
%TO.C,SW13*%
X245367381Y-153536838D03*
D16*
X250447381Y-153536838D03*
D15*
X255527381Y-153536838D03*
D17*
X252987381Y-148456838D03*
X246637381Y-150996838D03*
%TD*%
D10*
%TO.C,D15*%
X127863600Y-102997000D03*
D11*
X135483599Y-102996999D03*
%TD*%
D15*
%TO.C,SW6*%
X78333600Y-115062000D03*
D16*
X83413600Y-115062000D03*
D15*
X88493600Y-115062000D03*
D17*
X85953600Y-109982000D03*
X79603600Y-112522000D03*
%TD*%
D20*
%TO.C,*%
X277342600Y-144576800D03*
%TD*%
D10*
%TO.C,D13*%
X260607381Y-92068838D03*
D11*
X268227380Y-92068837D03*
%TD*%
D24*
%TO.C,J1*%
X213947980Y-97773837D03*
D25*
X213947980Y-95233837D03*
X213947980Y-92693837D03*
X213947980Y-90153837D03*
%TD*%
D10*
%TO.C,D3*%
X97383600Y-92837000D03*
D11*
X105003599Y-92836999D03*
%TD*%
D10*
%TO.C,D5*%
X240287381Y-102228838D03*
D11*
X247907380Y-102228837D03*
%TD*%
D15*
%TO.C,SW12*%
X240541381Y-134486838D03*
D16*
X245621381Y-134486838D03*
D15*
X250701381Y-134486838D03*
D17*
X248161381Y-129406838D03*
X241811381Y-131946838D03*
%TD*%
D10*
%TO.C,D4*%
X237747381Y-97148838D03*
D11*
X245367380Y-97148837D03*
%TD*%
D15*
%TO.C,SW26*%
X154533600Y-115062000D03*
D16*
X159613600Y-115062000D03*
D15*
X164693600Y-115062000D03*
D17*
X162153600Y-109982000D03*
X155803600Y-112522000D03*
%TD*%
D15*
%TO.C,SW18*%
X130784600Y-153162000D03*
D16*
X135864600Y-153162000D03*
D15*
X140944600Y-153162000D03*
D17*
X138404600Y-148082000D03*
X132054600Y-150622000D03*
%TD*%
D20*
%TO.C,*%
X150088600Y-185724800D03*
%TD*%
D10*
%TO.C,D6*%
X242827381Y-81908838D03*
D11*
X250447380Y-81908837D03*
%TD*%
D15*
%TO.C,SW20*%
X312169381Y-191636838D03*
D16*
X317249381Y-191636838D03*
D15*
X322329381Y-191636838D03*
D17*
X319789381Y-186556838D03*
X313439381Y-189096838D03*
%TD*%
D10*
%TO.C,D22*%
X145643600Y-87757000D03*
D11*
X153263599Y-87756999D03*
%TD*%
D10*
%TO.C,D20*%
X278387381Y-102228838D03*
D11*
X286007380Y-102228837D03*
%TD*%
D10*
%TO.C,D1*%
X92303600Y-82677000D03*
D11*
X99923599Y-82676999D03*
%TD*%
D10*
%TO.C,D23*%
X148183600Y-92837000D03*
D11*
X155803599Y-92836999D03*
%TD*%
D10*
%TO.C,D35*%
X313947381Y-97148838D03*
D11*
X321567380Y-97148837D03*
%TD*%
D10*
%TO.C,D3*%
X235207381Y-92068838D03*
D11*
X242827380Y-92068837D03*
%TD*%
D15*
%TO.C,SW10*%
X255727200Y-191668400D03*
D16*
X260807200Y-191668400D03*
D15*
X265887200Y-191668400D03*
D17*
X263347200Y-186588400D03*
X256997200Y-189128400D03*
%TD*%
D15*
%TO.C,SW22*%
X145135600Y-134112000D03*
D16*
X150215600Y-134112000D03*
D15*
X155295600Y-134112000D03*
D17*
X152755600Y-129032000D03*
X146405600Y-131572000D03*
%TD*%
D15*
%TO.C,SW5*%
X61696600Y-191262000D03*
D16*
X66776600Y-191262000D03*
D15*
X71856600Y-191262000D03*
D17*
X69316600Y-186182000D03*
X62966600Y-188722000D03*
%TD*%
D15*
%TO.C,SW15*%
X133146800Y-191312800D03*
D16*
X138226800Y-191312800D03*
D15*
X143306800Y-191312800D03*
D17*
X140766800Y-186232800D03*
X134416800Y-188772800D03*
%TD*%
D10*
%TO.C,D11*%
X117703600Y-82677000D03*
D11*
X125323599Y-82676999D03*
%TD*%
D10*
%TO.C,D9*%
X112623600Y-97917000D03*
D11*
X120243599Y-97916999D03*
%TD*%
D15*
%TO.C,SW16*%
X116433600Y-115062000D03*
D16*
X121513600Y-115062000D03*
D15*
X126593600Y-115062000D03*
D17*
X124053600Y-109982000D03*
X117703600Y-112522000D03*
%TD*%
D10*
%TO.C,D29*%
X163423600Y-97917000D03*
D11*
X171043599Y-97916999D03*
%TD*%
D15*
%TO.C,SW1*%
X59283600Y-115062000D03*
D16*
X64363600Y-115062000D03*
D15*
X69443600Y-115062000D03*
D17*
X66903600Y-109982000D03*
X60553600Y-112522000D03*
%TD*%
D15*
%TO.C,SW17*%
X259591381Y-134486838D03*
D16*
X264671381Y-134486838D03*
D15*
X269751381Y-134486838D03*
D17*
X267211381Y-129406838D03*
X260861381Y-131946838D03*
%TD*%
D15*
%TO.C,SW10*%
X85572600Y-191262000D03*
D16*
X90652600Y-191262000D03*
D15*
X95732600Y-191262000D03*
D17*
X93192600Y-186182000D03*
X86842600Y-188722000D03*
%TD*%
D15*
%TO.C,SW18*%
X264417381Y-153536838D03*
D16*
X269497381Y-153536838D03*
D15*
X274577381Y-153536838D03*
D17*
X272037381Y-148456838D03*
X265687381Y-150996838D03*
%TD*%
D21*
%TO.C,U2*%
X189839600Y-81914500D03*
X189839600Y-88914500D03*
D22*
X191939599Y-90714499D03*
X191939599Y-86714499D03*
X191939599Y-83714499D03*
X187739599Y-92214499D03*
%TD*%
D10*
%TO.C,D33*%
X308867381Y-86988838D03*
D11*
X316487380Y-86988837D03*
%TD*%
D10*
%TO.C,D15*%
X265687381Y-102228838D03*
D11*
X273307380Y-102228837D03*
%TD*%
D20*
%TO.C,*%
X248894600Y-182118000D03*
%TD*%
D10*
%TO.C,D21*%
X143103600Y-82677000D03*
D11*
X150723599Y-82676999D03*
%TD*%
D10*
%TO.C,D25*%
X291087381Y-102228838D03*
D11*
X298707380Y-102228837D03*
%TD*%
D10*
%TO.C,D24*%
X150723600Y-97917000D03*
D11*
X158343599Y-97916999D03*
%TD*%
D20*
%TO.C,*%
X78765400Y-185674000D03*
%TD*%
D10*
%TO.C,D24*%
X288547381Y-97148838D03*
D11*
X296167380Y-97148837D03*
%TD*%
D15*
%TO.C,SW9*%
X235969381Y-172586838D03*
D16*
X241049381Y-172586838D03*
D15*
X246129381Y-172586838D03*
D17*
X243589381Y-167506838D03*
X237239381Y-170046838D03*
%TD*%
D10*
%TO.C,D28*%
X298707381Y-92068838D03*
D11*
X306327380Y-92068837D03*
%TD*%
D10*
%TO.C,D14*%
X263147381Y-97148838D03*
D11*
X270767380Y-97148837D03*
%TD*%
D10*
%TO.C,D13*%
X122783600Y-92837000D03*
D11*
X130403599Y-92836999D03*
%TD*%
D10*
%TO.C,D23*%
X286007381Y-92068838D03*
D11*
X293627380Y-92068837D03*
%TD*%
D15*
%TO.C,SW29*%
X312169381Y-172586838D03*
D16*
X317249381Y-172586838D03*
D15*
X322329381Y-172586838D03*
D17*
X319789381Y-167506838D03*
X313439381Y-170046838D03*
%TD*%
D10*
%TO.C,D21*%
X280927381Y-81908838D03*
D11*
X288547380Y-81908837D03*
%TD*%
D10*
%TO.C,D10*%
X115163600Y-102997000D03*
D11*
X122783599Y-102996999D03*
%TD*%
D10*
%TO.C,D18*%
X273307381Y-92068838D03*
D11*
X280927380Y-92068837D03*
%TD*%
D15*
%TO.C,SW26*%
X307089381Y-115436838D03*
D16*
X312169381Y-115436838D03*
D15*
X317249381Y-115436838D03*
D17*
X314709381Y-110356838D03*
X308359381Y-112896838D03*
%TD*%
D10*
%TO.C,D2*%
X232667381Y-86988838D03*
D11*
X240287380Y-86988837D03*
%TD*%
D10*
%TO.C,D17*%
X132943600Y-87757000D03*
D11*
X140563599Y-87756999D03*
%TD*%
D15*
%TO.C,SW23*%
X149834600Y-153162000D03*
D16*
X154914600Y-153162000D03*
D15*
X159994600Y-153162000D03*
D17*
X157454600Y-148082000D03*
X151104600Y-150622000D03*
%TD*%
D19*
%TO.C,SW5*%
X210807200Y-184653200D03*
D16*
X210807200Y-199893200D03*
D15*
X217627200Y-191653200D03*
D16*
X222707200Y-191653200D03*
D15*
X227787200Y-191653200D03*
D19*
X234607200Y-184653200D03*
D16*
X234607200Y-199893200D03*
D17*
X225247200Y-186573200D03*
X218897200Y-189113200D03*
%TD*%
D15*
%TO.C,SW8*%
X92684600Y-153162000D03*
D16*
X97764600Y-153162000D03*
D15*
X102844600Y-153162000D03*
D17*
X100304600Y-148082000D03*
X93954600Y-150622000D03*
%TD*%
D20*
%TO.C,*%
X320217800Y-124358400D03*
%TD*%
%TO.C,*%
X159740600Y-125222000D03*
%TD*%
D10*
%TO.C,D16*%
X268227381Y-81908838D03*
D11*
X275847380Y-81908837D03*
%TD*%
D10*
%TO.C,D29*%
X301247381Y-97148838D03*
D11*
X308867380Y-97148837D03*
%TD*%
D15*
%TO.C,SW3*%
X66522600Y-153162000D03*
D16*
X71602600Y-153162000D03*
D15*
X76682600Y-153162000D03*
D17*
X74142600Y-148082000D03*
X67792600Y-150622000D03*
%TD*%
D20*
%TO.C,*%
X325145400Y-182067200D03*
%TD*%
D15*
%TO.C,SW3*%
X207267381Y-153536838D03*
D16*
X212347381Y-153536838D03*
D15*
X217427381Y-153536838D03*
D17*
X214887381Y-148456838D03*
X208537381Y-150996838D03*
%TD*%
D26*
%TO.C,U1*%
X58775599Y-86385399D03*
D27*
X61315600Y-86842600D03*
X63855600Y-86385400D03*
X66395600Y-86842600D03*
X68935600Y-86385400D03*
X71475600Y-86842600D03*
X74015600Y-86385400D03*
X76555600Y-86842600D03*
X79095600Y-86385400D03*
X81635600Y-86842600D03*
X84175600Y-86385400D03*
X86715600Y-86842600D03*
X86715600Y-101625400D03*
X84175600Y-102082600D03*
X81635600Y-101625400D03*
X79095600Y-102082600D03*
X76555600Y-101625400D03*
X74015600Y-102082600D03*
X71475600Y-101625400D03*
X68935600Y-102082600D03*
X66395600Y-101625400D03*
X63855600Y-102082600D03*
X61315600Y-101625400D03*
X58775600Y-102082600D03*
%TD*%
D26*
%TO.C,U1*%
X322075380Y-85490237D03*
D27*
X324615381Y-85947438D03*
X327155381Y-85490238D03*
X329695381Y-85947438D03*
X332235381Y-85490238D03*
X334775381Y-85947438D03*
X337315381Y-85490238D03*
X339855381Y-85947438D03*
X342395381Y-85490238D03*
X344935381Y-85947438D03*
X347475381Y-85490238D03*
X350015381Y-85947438D03*
X350015381Y-100730238D03*
X347475381Y-101187438D03*
X344935381Y-100730238D03*
X342395381Y-101187438D03*
X339855381Y-100730238D03*
X337315381Y-101187438D03*
X334775381Y-100730238D03*
X332235381Y-101187438D03*
X329695381Y-100730238D03*
X327155381Y-101187438D03*
X324615381Y-100730238D03*
X322075381Y-101187438D03*
%TD*%
M02*
