%TF.GenerationSoftware,KiCad,Pcbnew,(7.0.0)*%
%TF.CreationDate,2023-09-10T10:39:49-04:00*%
%TF.ProjectId,RMK-complete,524d4b2d-636f-46d7-906c-6574652e6b69,rev?*%
%TF.SameCoordinates,Original*%
%TF.FileFunction,Profile,NP*%
%FSLAX46Y46*%
G04 Gerber Fmt 4.6, Leading zero omitted, Abs format (unit mm)*
G04 Created by KiCad (PCBNEW (7.0.0)) date 2023-09-10 10:39:49*
%MOMM*%
%LPD*%
G01*
G04 APERTURE LIST*
%TA.AperFunction,Profile*%
%ADD10C,0.100000*%
%TD*%
G04 APERTURE END LIST*
D10*
X39722271Y-77662623D02*
G75*
G03*
X37442433Y-79942465I-1J-2279837D01*
G01*
X195173600Y-93980000D02*
X195173600Y-142748000D01*
X376428000Y-204590838D02*
X195837381Y-204590838D01*
X195173600Y-155702000D02*
X195173600Y-191008000D01*
X378721791Y-79871547D02*
G75*
G03*
X376441998Y-77591709I-2279791J47D01*
G01*
X39722271Y-77662627D02*
X195173600Y-77597000D01*
X195173600Y-77597000D02*
X195837381Y-77590838D01*
X195173600Y-93980000D02*
X195834000Y-93980000D01*
X37440974Y-202315988D02*
G75*
G03*
X39720783Y-204595826I2279826J-12D01*
G01*
X195173600Y-204597000D02*
X195837381Y-204590838D01*
X195837381Y-142748000D02*
X195834000Y-93980000D01*
X195173600Y-204597000D02*
X39720783Y-204595826D01*
X195837381Y-77590838D02*
X376441998Y-77591709D01*
X195173600Y-191008000D02*
X195834000Y-191008000D01*
X378721836Y-79871547D02*
X378713999Y-202311000D01*
X195834000Y-155702000D02*
X195834000Y-191008000D01*
X195173600Y-142748000D02*
X195837381Y-142748000D01*
X376434154Y-204592892D02*
G75*
G03*
X378713992Y-202313120I46J2279792D01*
G01*
X37440945Y-202315988D02*
X37442433Y-79942465D01*
X195173600Y-155702000D02*
X195834000Y-155702000D01*
M02*
