M48
; DRILL file {KiCad (7.0.0)} date Sun Sep 10 10:39:45 2023
; FORMAT={-:-/ absolute / inch / decimal}
; #@! TF.CreationDate,2023-09-10T10:39:45-04:00
; #@! TF.GenerationSoftware,Kicad,Pcbnew,(7.0.0)
; #@! TF.FileFunction,MixedPlating,1,2
FMAT,2
INCH
; #@! TA.AperFunction,Plated,PTH,ViaDrill
T1C0.0118
; #@! TA.AperFunction,Plated,PTH,ViaDrill
T2C0.0157
; #@! TA.AperFunction,Plated,PTH,ComponentDrill
T3C0.0197
; #@! TA.AperFunction,Plated,PTH,ComponentDrill
T4C0.0320
; #@! TA.AperFunction,Plated,PTH,ComponentDrill
T5C0.0390
; #@! TA.AperFunction,Plated,PTH,ComponentDrill
T6C0.0394
; #@! TA.AperFunction,Plated,PTH,ComponentDrill
T7C0.0430
; #@! TA.AperFunction,Plated,PTH,ComponentDrill
T8C0.0512
; #@! TA.AperFunction,Plated,PTH,ComponentDrill
T9C0.0591
; #@! TA.AperFunction,Plated,PTH,ComponentDrill
T10C0.1260
; #@! TA.AperFunction,NonPlated,NPTH,ComponentDrill
T11C0.0472
; #@! TA.AperFunction,NonPlated,NPTH,ComponentDrill
T12C0.0591
; #@! TA.AperFunction,NonPlated,NPTH,ComponentDrill
T13C0.0669
; #@! TA.AperFunction,NonPlated,NPTH,ComponentDrill
T14C0.1201
; #@! TA.AperFunction,NonPlated,NPTH,ComponentDrill
T15C0.1575
%
G90
G05
T1
X11.7101Y-4.0848
X12.1601Y-3.6848
X12.2501Y-3.7248
X12.5001Y-4.4448
X13.0201Y-3.5948
X13.0201Y-3.6648
X13.0201Y-3.7648
X13.0201Y-3.8148
X13.9301Y-3.2948
T2
X2.159Y-3.755
X2.9465Y-3.2175
X3.364Y-3.515
X3.404Y-3.555
X3.444Y-3.635
T4
X2.634Y-3.63
X2.634Y-3.83
X2.759Y-3.63
X2.759Y-3.83
X12.8201Y-3.1948
X13.0201Y-3.1948
X13.1101Y-3.1948
X13.3101Y-3.1948
T5
X3.634Y-3.255
X3.734Y-3.455
X3.834Y-3.655
X3.934Y-3.255
X3.934Y-3.855
X4.034Y-3.455
X4.034Y-4.055
X4.134Y-3.255
X4.134Y-3.655
X4.234Y-3.455
X4.234Y-3.855
X4.334Y-3.655
X4.334Y-4.055
X4.434Y-3.255
X4.434Y-3.855
X4.534Y-3.455
X4.534Y-4.055
X4.634Y-3.255
X4.634Y-3.655
X4.734Y-3.455
X4.734Y-3.855
X4.834Y-3.655
X4.834Y-4.055
X4.934Y-3.255
X4.934Y-3.855
X5.034Y-3.455
X5.034Y-4.055
X5.134Y-3.255
X5.134Y-3.655
X5.234Y-3.455
X5.234Y-3.855
X5.334Y-3.655
X5.334Y-4.055
X5.434Y-3.255
X5.434Y-3.855
X5.534Y-3.455
X5.534Y-4.055
X5.634Y-3.255
X5.634Y-3.655
X5.734Y-3.455
X5.734Y-3.855
X5.834Y-3.655
X5.834Y-4.055
X5.934Y-3.255
X5.934Y-3.855
X6.034Y-3.455
X6.134Y-3.255
X6.134Y-3.655
X6.234Y-3.455
X6.234Y-3.855
X6.334Y-3.655
X6.434Y-3.255
X6.434Y-3.855
X6.534Y-3.455
X6.534Y-4.055
X6.634Y-3.655
X6.734Y-3.855
X6.834Y-4.055
X9.0601Y-3.2248
X9.1601Y-3.4248
X9.2601Y-3.6248
X9.3601Y-3.2248
X9.3601Y-3.8248
X9.4601Y-3.4248
X9.4601Y-4.0248
X9.5601Y-3.2248
X9.5601Y-3.6248
X9.6601Y-3.4248
X9.6601Y-3.8248
X9.7601Y-3.6248
X9.7601Y-4.0248
X9.8601Y-3.2248
X9.8601Y-3.8248
X9.9601Y-3.4248
X9.9601Y-4.0248
X10.0601Y-3.2248
X10.0601Y-3.6248
X10.1601Y-3.4248
X10.1601Y-3.8248
X10.2601Y-3.6248
X10.2601Y-4.0248
X10.3601Y-3.2248
X10.3601Y-3.8248
X10.4601Y-3.4248
X10.4601Y-4.0248
X10.5601Y-3.2248
X10.5601Y-3.6248
X10.6601Y-3.4248
X10.6601Y-3.8248
X10.7601Y-3.6248
X10.7601Y-4.0248
X10.8601Y-3.2248
X10.8601Y-3.8248
X10.9601Y-3.4248
X10.9601Y-4.0248
X11.0601Y-3.2248
X11.0601Y-3.6248
X11.1601Y-3.4248
X11.1601Y-3.8248
X11.2601Y-3.6248
X11.2601Y-4.0248
X11.3601Y-3.2248
X11.3601Y-3.8248
X11.4601Y-3.4248
X11.4601Y-4.0248
X11.5601Y-3.2248
X11.5601Y-3.6248
X11.6601Y-3.4248
X11.6601Y-3.8248
X11.7601Y-3.6248
X11.7601Y-4.0248
X11.8601Y-3.2248
X11.8601Y-3.8248
X11.9601Y-3.4248
X11.9601Y-4.0248
X12.0601Y-3.2248
X12.0601Y-3.6248
X12.1601Y-3.4248
X12.1601Y-3.8248
X12.2601Y-3.6248
X12.2601Y-4.0248
X12.3601Y-3.2248
X12.3601Y-3.8248
X12.4601Y-3.4248
X12.5601Y-3.6248
X12.6601Y-3.8248
T6
X1.6718Y-5.993
X1.6718Y-7.7056
X1.6856Y-4.1597
X1.6856Y-4.7306
X1.784Y-4.1597
X1.8096Y-7.7056
X1.8824Y-4.1597
X1.8824Y-4.7306
X8.4231Y-3.5494
X8.4231Y-3.6494
X8.4231Y-3.7494
X8.4231Y-3.8494
X14.4817Y-4.3495
X14.4817Y-4.9203
X14.4817Y-5.1595
X14.4817Y-5.7303
X14.5801Y-4.3495
X14.5801Y-5.1595
X14.6786Y-4.3495
X14.6786Y-4.9203
X14.6786Y-5.1595
X14.6786Y-5.7303
T7
X2.314Y-3.401
X2.314Y-4.019
X2.414Y-3.419
X2.414Y-4.001
X2.514Y-3.401
X2.514Y-4.019
X2.614Y-3.419
X2.614Y-4.001
X2.714Y-3.401
X2.714Y-4.019
X2.814Y-3.419
X2.814Y-4.001
X2.914Y-3.401
X2.914Y-4.019
X3.014Y-3.419
X3.014Y-4.001
X3.114Y-3.401
X3.114Y-4.019
X3.214Y-3.419
X3.214Y-4.001
X3.314Y-3.401
X3.314Y-4.019
X3.414Y-3.419
X3.414Y-4.001
X12.6801Y-3.3658
X12.6801Y-3.9838
X12.7801Y-3.3838
X12.7801Y-3.9658
X12.8801Y-3.3658
X12.8801Y-3.9838
X12.9801Y-3.3838
X12.9801Y-3.9658
X13.0801Y-3.3658
X13.0801Y-3.9838
X13.1801Y-3.3838
X13.1801Y-3.9658
X13.2801Y-3.3658
X13.2801Y-3.9838
X13.3801Y-3.3838
X13.3801Y-3.9658
X13.4801Y-3.3658
X13.4801Y-3.9838
X13.5801Y-3.3838
X13.5801Y-3.9658
X13.6801Y-3.3658
X13.6801Y-3.9838
X13.7801Y-3.3838
X13.7801Y-3.9658
T8
X2.106Y-3.205
X2.362Y-3.205
X13.4722Y-3.1948
X13.7281Y-3.1948
T9
X2.384Y-4.43
X2.479Y-7.43
X2.574Y-5.18
X2.634Y-4.33
X2.669Y-5.93
X2.729Y-7.33
X2.824Y-5.08
X2.854Y-6.6774
X2.919Y-5.83
X3.104Y-6.5774
X3.134Y-4.43
X3.384Y-4.33
X3.419Y-7.43
X3.514Y-5.18
X3.669Y-7.33
X3.699Y-5.93
X3.764Y-5.08
X3.884Y-4.43
X3.949Y-5.83
X4.074Y-6.68
X4.134Y-4.33
X4.264Y-5.18
X4.324Y-6.58
X4.449Y-5.93
X4.514Y-5.08
X4.634Y-4.43
X4.699Y-5.83
X4.824Y-6.68
X4.884Y-4.33
X5.014Y-5.18
X5.074Y-6.58
X5.199Y-5.93
X5.264Y-5.08
X5.292Y-7.432
X5.384Y-4.43
X5.449Y-5.83
X5.542Y-7.332
X5.574Y-6.68
X5.634Y-4.33
X5.764Y-5.18
X5.824Y-6.58
X5.949Y-5.93
X6.014Y-5.08
X6.134Y-4.43
X6.199Y-5.83
X6.324Y-6.68
X6.384Y-4.33
X6.514Y-5.18
X6.574Y-6.58
X6.604Y-7.4324
X6.699Y-5.93
X6.764Y-5.08
X6.854Y-7.3324
X6.884Y-4.43
X6.949Y-5.83
X7.074Y-6.68
X7.134Y-4.33
X7.324Y-6.58
X8.0201Y-5.1948
X8.2101Y-5.9448
X8.2701Y-5.0948
X8.3901Y-4.4448
X8.4601Y-5.8448
X8.5901Y-6.6948
X8.618Y-7.4454
X8.6401Y-4.3448
X8.7701Y-5.1948
X8.8401Y-6.5948
X8.868Y-7.3454
X8.9601Y-5.9448
X9.0201Y-5.0948
X9.1401Y-4.4448
X9.2101Y-5.8448
X9.3401Y-6.6948
X9.3901Y-4.3448
X9.5201Y-5.1948
X9.5901Y-6.5948
X9.7101Y-5.9448
X9.7701Y-5.0948
X9.8901Y-4.4448
X9.9601Y-5.8448
X10.0901Y-6.6948
X10.118Y-7.446
X10.1401Y-4.3448
X10.2701Y-5.1948
X10.3401Y-6.5948
X10.368Y-7.346
X10.4601Y-5.9448
X10.5201Y-5.0948
X10.6401Y-4.4448
X10.7101Y-5.8448
X10.8401Y-6.6948
X10.8901Y-4.3448
X11.0201Y-5.1948
X11.0901Y-6.5948
X11.2101Y-5.9448
X11.2701Y-5.0948
X11.3901Y-4.4448
X11.4601Y-5.8448
X11.5901Y-6.6948
X11.5901Y-7.4448
X11.6401Y-4.3448
X11.7701Y-5.1948
X11.8401Y-6.5948
X11.8401Y-7.3448
X11.9601Y-5.9448
X12.0201Y-5.0948
X12.1401Y-4.4448
X12.2101Y-5.8448
X12.3401Y-6.6948
X12.3401Y-7.4448
X12.3901Y-4.3448
X12.5201Y-5.1948
X12.5901Y-6.5948
X12.5901Y-7.3448
X12.7701Y-5.0948
X13.0901Y-7.4448
X13.1801Y-5.9422
X13.2701Y-4.4422
X13.3401Y-7.3448
X13.3701Y-6.6948
X13.4301Y-5.8422
X13.4601Y-5.1948
X13.5201Y-4.3422
X13.6201Y-6.5948
X13.7101Y-5.0948
T10
X3.101Y-7.31
X3.215Y-4.94
X4.791Y-5.63
X5.909Y-7.312
X6.289Y-4.93
X8.851Y-4.898
X9.799Y-7.17
X10.919Y-5.692
X12.607Y-4.896
X12.801Y-7.168
T11
X7.474Y-3.225
X7.474Y-3.5006
X7.914Y-3.225
X7.914Y-3.5006
T12
X1.5734Y-6.2056
X1.5734Y-7.4969
X1.908Y-6.1583
X1.908Y-7.5442
T13
X2.334Y-4.53
X2.429Y-7.53
X2.524Y-5.28
X2.619Y-6.03
X2.734Y-4.53
X2.804Y-6.7774
X2.829Y-7.53
X2.924Y-5.28
X3.019Y-6.03
X3.084Y-4.53
X3.204Y-6.7774
X3.369Y-7.53
X3.464Y-5.28
X3.484Y-4.53
X3.649Y-6.03
X3.769Y-7.53
X3.834Y-4.53
X3.864Y-5.28
X4.024Y-6.78
X4.049Y-6.03
X4.214Y-5.28
X4.234Y-4.53
X4.399Y-6.03
X4.424Y-6.78
X4.584Y-4.53
X4.614Y-5.28
X4.774Y-6.78
X4.799Y-6.03
X4.964Y-5.28
X4.984Y-4.53
X5.149Y-6.03
X5.174Y-6.78
X5.242Y-7.532
X5.334Y-4.53
X5.364Y-5.28
X5.524Y-6.78
X5.549Y-6.03
X5.642Y-7.532
X5.714Y-5.28
X5.734Y-4.53
X5.899Y-6.03
X5.924Y-6.78
X6.084Y-4.53
X6.114Y-5.28
X6.274Y-6.78
X6.299Y-6.03
X6.464Y-5.28
X6.484Y-4.53
X6.554Y-7.5324
X6.649Y-6.03
X6.674Y-6.78
X6.834Y-4.53
X6.864Y-5.28
X6.954Y-7.5324
X7.024Y-6.78
X7.049Y-6.03
X7.234Y-4.53
X7.424Y-6.78
X7.9701Y-5.2948
X8.1601Y-6.0448
X8.3401Y-4.5448
X8.3701Y-5.2948
X8.5401Y-6.7948
X8.5601Y-6.0448
X8.568Y-7.5454
X8.7201Y-5.2948
X8.7401Y-4.5448
X8.9101Y-6.0448
X8.9401Y-6.7948
X8.968Y-7.5454
X9.0901Y-4.5448
X9.1201Y-5.2948
X9.2901Y-6.7948
X9.3101Y-6.0448
X9.4701Y-5.2948
X9.4901Y-4.5448
X9.6601Y-6.0448
X9.6901Y-6.7948
X9.8401Y-4.5448
X9.8701Y-5.2948
X10.0401Y-6.7948
X10.0601Y-6.0448
X10.068Y-7.546
X10.2201Y-5.2948
X10.2401Y-4.5448
X10.4101Y-6.0448
X10.4401Y-6.7948
X10.468Y-7.546
X10.5901Y-4.5448
X10.6201Y-5.2948
X10.7901Y-6.7948
X10.8101Y-6.0448
X10.9701Y-5.2948
X10.9901Y-4.5448
X11.1601Y-6.0448
X11.1901Y-6.7948
X11.3401Y-4.5448
X11.3701Y-5.2948
X11.5401Y-6.7948
X11.5401Y-7.5448
X11.5601Y-6.0448
X11.7201Y-5.2948
X11.7401Y-4.5448
X11.9101Y-6.0448
X11.9401Y-6.7948
X11.9401Y-7.5448
X12.0901Y-4.5448
X12.1201Y-5.2948
X12.2901Y-6.7948
X12.2901Y-7.5448
X12.3101Y-6.0448
X12.4701Y-5.2948
X12.4901Y-4.5448
X12.6901Y-6.7948
X12.6901Y-7.5448
X12.8701Y-5.2948
X13.0401Y-7.5448
X13.1301Y-6.0422
X13.2201Y-4.5422
X13.3201Y-6.7948
X13.4101Y-5.2948
X13.4401Y-7.5448
X13.5301Y-6.0422
X13.6201Y-4.5422
X13.7201Y-6.7948
X13.8101Y-5.2948
T14
X2.5355Y-6.5018
X3.4725Y-6.5018
X6.2855Y-7.2568
X7.2225Y-7.2568
X8.2995Y-7.2698
X9.2365Y-7.2698
X12.8616Y-5.7666
X12.9516Y-4.2666
X13.7986Y-5.7666
X13.8886Y-4.2666
T15
X2.534Y-4.53
X2.5355Y-7.1018
X2.629Y-7.53
X2.724Y-5.28
X2.819Y-6.03
X3.004Y-6.7774
X3.284Y-4.53
X3.4725Y-7.1018
X3.569Y-7.53
X3.664Y-5.28
X3.849Y-6.03
X4.034Y-4.53
X4.224Y-6.78
X4.414Y-5.28
X4.599Y-6.03
X4.784Y-4.53
X4.974Y-6.78
X5.164Y-5.28
X5.349Y-6.03
X5.442Y-7.532
X5.534Y-4.53
X5.724Y-6.78
X5.914Y-5.28
X6.099Y-6.03
X6.284Y-4.53
X6.2855Y-7.8568
X6.474Y-6.78
X6.664Y-5.28
X6.754Y-7.5324
X6.849Y-6.03
X7.034Y-4.53
X7.2225Y-7.8568
X7.224Y-6.78
X8.1701Y-5.2948
X8.2995Y-7.8698
X8.3601Y-6.0448
X8.5401Y-4.5448
X8.7401Y-6.7948
X8.768Y-7.5454
X8.9201Y-5.2948
X9.1101Y-6.0448
X9.2365Y-7.8698
X9.2901Y-4.5448
X9.4901Y-6.7948
X9.6701Y-5.2948
X9.8601Y-6.0448
X10.0401Y-4.5448
X10.2401Y-6.7948
X10.268Y-7.546
X10.4201Y-5.2948
X10.6101Y-6.0448
X10.7901Y-4.5448
X10.9901Y-6.7948
X11.1701Y-5.2948
X11.3601Y-6.0448
X11.5401Y-4.5448
X11.7401Y-6.7948
X11.7401Y-7.5448
X11.9201Y-5.2948
X12.1101Y-6.0448
X12.2901Y-4.5448
X12.4901Y-6.7948
X12.4901Y-7.5448
X12.6701Y-5.2948
X12.8616Y-6.3666
X12.9516Y-4.8666
X13.2401Y-7.5448
X13.3301Y-6.0422
X13.4201Y-4.5422
X13.5201Y-6.7948
X13.6101Y-5.2948
X13.7986Y-6.3666
X13.8886Y-4.8666
T3
G00X7.3913Y-3.6088
M15
G01X7.3913Y-3.6521
M16
G05
G00X7.5567Y-3.2742
M15
G01X7.5567Y-3.3175
M16
G05
G00X7.5567Y-3.3923
M15
G01X7.5567Y-3.4356
M16
G05
G00X7.5567Y-3.5498
M15
G01X7.5567Y-3.5931
M16
G05
G00X7.8313Y-3.6088
M15
G01X7.8313Y-3.6521
M16
G05
G00X7.9967Y-3.2742
M15
G01X7.9967Y-3.3175
M16
G05
G00X7.9967Y-3.3923
M15
G01X7.9967Y-3.4356
M16
G05
G00X7.9967Y-3.5498
M15
G01X7.9967Y-3.5931
M16
G05
T12
G00X1.5635Y-4.4294
M15
G01X1.5635Y-4.4806
M16
G05
G00X2.0045Y-4.4294
M15
G01X2.0045Y-4.4806
M16
G05
G00X14.3597Y-4.6192
M15
G01X14.3597Y-4.6703
M16
G05
G00X14.3597Y-5.4292
M15
G01X14.3597Y-5.4803
M16
G05
G00X14.8006Y-4.6192
M15
G01X14.8006Y-4.6703
M16
G05
G00X14.8006Y-5.4292
M15
G01X14.8006Y-5.4803
M16
G05
T0
M30
